<?xml version="1.0" encoding="UTF-8"?>
<!DOCTYPE svg PUBLIC "-//W3C//DTD SVG 1.1//EN" "http://www.w3.org/Graphics/SVG/1.1/DTD/svg11.dtd">
<!-- Creator: CorelDRAW 2020 (64-Bit) -->
<svg xmlns="http://www.w3.org/2000/svg" xml:space="preserve" width="24.5495mm" height="24.7606mm" version="1.1" style="shape-rendering:geometricPrecision; text-rendering:geometricPrecision; image-rendering:optimizeQuality; fill-rule:evenodd; clip-rule:evenodd"
viewBox="0 0 2082.12 2100.02"
 xmlns:xlink="http://www.w3.org/1999/xlink"
 xmlns:xodm="http://www.corel.com/coreldraw/odm/2003">
 <defs>
  <style type="text/css">
   <![CDATA[
    .fil1 {fill:#294539}
    .fil0 {fill:#84B639}
   ]]>
  </style>
 </defs>
 <g id="Layer_x0020_1">
  <metadata id="CorelCorpID_0Corel-Layer"/>
  <g id="_2955647953840">
   <path class="fil0" d="M756.86 398.84l0 578.71 586.95 0 0 -532.37c-27.64,-46.21 -103.01,-50.68 -188.45,-46.33l0 392.33 -214.17 0 0 -392.33 -184.33 0zm1149.18 1515.49l0 -1376.15c93.32,97.22 150.72,228.18 176.08,389.24l0 1172.6 -1214.06 0c-314.16,-33.22 -506.1,-232.18 -488.09,-636.71l0 -1065.78 172.99 0 0 1093.58c-8.42,282.01 125.79,397.63 339.81,420.13l1013.26 3.09z"/>
   <path class="fil1" d="M1339.28 1701.18l0 -537.83 -576.44 0 0 496.17c27.65,46.22 92.5,46.02 177.94,41.67l0 -363.14 222.35 0 0 363.14 176.16 0zm-1163.19 -1515.49l0 1337.62c-93.33,-97.21 -150.72,-228.18 -176.09,-389.24l0 -1134.07 1214.06 0c314.16,33.22 506.11,232.18 488.09,636.71l0 1065.78 -172.99 0 0 -1093.58c8.42,-282.01 -125.79,-397.63 -339.81,-420.13l-1013.25 -3.09z"/>
  </g>
 </g>
</svg>
